<mxfile host="app.diagrams.net" modified="2024-06-18T13:49:27.187Z" agent="Mozilla/5.0 (Macintosh; Intel Mac OS X 10_15_7) AppleWebKit/605.1.15 (KHTML, like Gecko) Version/16.6 Safari/605.1.15" etag="yWoM6n3TGLr5cwJKFn4Z" version="24.5.2" type="github">
  <diagram id="R2lEEEUBdFMjLlhIrx00" name="Page-1">
    <mxGraphModel dx="1797" dy="1092" grid="1" gridSize="10" guides="1" tooltips="1" connect="1" arrows="1" fold="1" page="1" pageScale="1" pageWidth="850" pageHeight="1100" math="0" shadow="0" extFonts="Permanent Marker^https://fonts.googleapis.com/css?family=Permanent+Marker">
      <root>
        <mxCell id="0" />
        <mxCell id="1" parent="0" />
        <mxCell id="DNINL0P4rUj6YcQH25lX-1" value="" style="shape=table;startSize=0;container=1;collapsible=0;childLayout=tableLayout;fontSize=16;" vertex="1" parent="1">
          <mxGeometry x="121" y="170" width="380" height="90" as="geometry" />
        </mxCell>
        <mxCell id="DNINL0P4rUj6YcQH25lX-2" value="" style="shape=tableRow;horizontal=0;startSize=0;swimlaneHead=0;swimlaneBody=0;strokeColor=inherit;top=0;left=0;bottom=0;right=0;collapsible=0;dropTarget=0;fillColor=none;points=[[0,0.5],[1,0.5]];portConstraint=eastwest;fontSize=16;" vertex="1" parent="DNINL0P4rUj6YcQH25lX-1">
          <mxGeometry width="380" height="90" as="geometry" />
        </mxCell>
        <mxCell id="DNINL0P4rUj6YcQH25lX-3" value="&lt;u&gt;PatientNo&lt;/u&gt;" style="shape=partialRectangle;html=1;whiteSpace=wrap;connectable=0;strokeColor=inherit;overflow=hidden;fillColor=none;top=0;left=0;bottom=0;right=0;pointerEvents=1;fontSize=16;" vertex="1" parent="DNINL0P4rUj6YcQH25lX-2">
          <mxGeometry width="127" height="90" as="geometry">
            <mxRectangle width="127" height="90" as="alternateBounds" />
          </mxGeometry>
        </mxCell>
        <mxCell id="DNINL0P4rUj6YcQH25lX-4" value="FullName" style="shape=partialRectangle;html=1;whiteSpace=wrap;connectable=0;strokeColor=inherit;overflow=hidden;fillColor=none;top=0;left=0;bottom=0;right=0;pointerEvents=1;fontSize=16;" vertex="1" parent="DNINL0P4rUj6YcQH25lX-2">
          <mxGeometry x="127" width="126" height="90" as="geometry">
            <mxRectangle width="126" height="90" as="alternateBounds" />
          </mxGeometry>
        </mxCell>
        <mxCell id="DNINL0P4rUj6YcQH25lX-5" value="WardNo" style="shape=partialRectangle;html=1;whiteSpace=wrap;connectable=0;strokeColor=inherit;overflow=hidden;fillColor=none;top=0;left=0;bottom=0;right=0;pointerEvents=1;fontSize=16;" vertex="1" parent="DNINL0P4rUj6YcQH25lX-2">
          <mxGeometry x="253" width="127" height="90" as="geometry">
            <mxRectangle width="127" height="90" as="alternateBounds" />
          </mxGeometry>
        </mxCell>
        <mxCell id="DNINL0P4rUj6YcQH25lX-14" value="Problem 2" style="text;html=1;align=center;verticalAlign=middle;resizable=0;points=[];autosize=1;strokeColor=none;fillColor=none;fontSize=16;" vertex="1" parent="1">
          <mxGeometry x="124" y="41" width="100" height="30" as="geometry" />
        </mxCell>
        <mxCell id="DNINL0P4rUj6YcQH25lX-19" value="" style="shape=table;startSize=0;container=1;collapsible=0;childLayout=tableLayout;fontSize=16;" vertex="1" parent="1">
          <mxGeometry x="501" y="170" width="380" height="90" as="geometry" />
        </mxCell>
        <mxCell id="DNINL0P4rUj6YcQH25lX-20" value="" style="shape=tableRow;horizontal=0;startSize=0;swimlaneHead=0;swimlaneBody=0;strokeColor=inherit;top=0;left=0;bottom=0;right=0;collapsible=0;dropTarget=0;fillColor=none;points=[[0,0.5],[1,0.5]];portConstraint=eastwest;fontSize=16;" vertex="1" parent="DNINL0P4rUj6YcQH25lX-19">
          <mxGeometry width="380" height="90" as="geometry" />
        </mxCell>
        <mxCell id="DNINL0P4rUj6YcQH25lX-21" value="BedNo&lt;span style=&quot;white-space: pre;&quot;&gt;&lt;/span&gt;" style="shape=partialRectangle;html=1;whiteSpace=wrap;connectable=0;strokeColor=inherit;overflow=hidden;fillColor=none;top=0;left=0;bottom=0;right=0;pointerEvents=1;fontSize=16;" vertex="1" parent="DNINL0P4rUj6YcQH25lX-20">
          <mxGeometry width="127" height="90" as="geometry">
            <mxRectangle width="127" height="90" as="alternateBounds" />
          </mxGeometry>
        </mxCell>
        <mxCell id="DNINL0P4rUj6YcQH25lX-22" value="WardName" style="shape=partialRectangle;html=1;whiteSpace=wrap;connectable=0;strokeColor=inherit;overflow=hidden;fillColor=none;top=0;left=0;bottom=0;right=0;pointerEvents=1;fontSize=16;" vertex="1" parent="DNINL0P4rUj6YcQH25lX-20">
          <mxGeometry x="127" width="126" height="90" as="geometry">
            <mxRectangle width="126" height="90" as="alternateBounds" />
          </mxGeometry>
        </mxCell>
        <mxCell id="DNINL0P4rUj6YcQH25lX-23" value="&lt;u&gt;DrugNo&lt;/u&gt;" style="shape=partialRectangle;html=1;whiteSpace=wrap;connectable=0;strokeColor=inherit;overflow=hidden;fillColor=none;top=0;left=0;bottom=0;right=0;pointerEvents=1;fontSize=16;" vertex="1" parent="DNINL0P4rUj6YcQH25lX-20">
          <mxGeometry x="253" width="127" height="90" as="geometry">
            <mxRectangle width="127" height="90" as="alternateBounds" />
          </mxGeometry>
        </mxCell>
        <mxCell id="DNINL0P4rUj6YcQH25lX-27" value="" style="shape=table;startSize=0;container=1;collapsible=0;childLayout=tableLayout;fontSize=16;" vertex="1" parent="1">
          <mxGeometry x="881" y="170" width="380" height="90" as="geometry" />
        </mxCell>
        <mxCell id="DNINL0P4rUj6YcQH25lX-28" value="" style="shape=tableRow;horizontal=0;startSize=0;swimlaneHead=0;swimlaneBody=0;strokeColor=inherit;top=0;left=0;bottom=0;right=0;collapsible=0;dropTarget=0;fillColor=none;points=[[0,0.5],[1,0.5]];portConstraint=eastwest;fontSize=16;" vertex="1" parent="DNINL0P4rUj6YcQH25lX-27">
          <mxGeometry width="380" height="90" as="geometry" />
        </mxCell>
        <mxCell id="DNINL0P4rUj6YcQH25lX-29" value="Name" style="shape=partialRectangle;html=1;whiteSpace=wrap;connectable=0;strokeColor=inherit;overflow=hidden;fillColor=none;top=0;left=0;bottom=0;right=0;pointerEvents=1;fontSize=16;" vertex="1" parent="DNINL0P4rUj6YcQH25lX-28">
          <mxGeometry width="127" height="90" as="geometry">
            <mxRectangle width="127" height="90" as="alternateBounds" />
          </mxGeometry>
        </mxCell>
        <mxCell id="DNINL0P4rUj6YcQH25lX-30" value="Description" style="shape=partialRectangle;html=1;whiteSpace=wrap;connectable=0;strokeColor=inherit;overflow=hidden;fillColor=none;top=0;left=0;bottom=0;right=0;pointerEvents=1;fontSize=16;" vertex="1" parent="DNINL0P4rUj6YcQH25lX-28">
          <mxGeometry x="127" width="126" height="90" as="geometry">
            <mxRectangle width="126" height="90" as="alternateBounds" />
          </mxGeometry>
        </mxCell>
        <mxCell id="DNINL0P4rUj6YcQH25lX-31" value="Dosage" style="shape=partialRectangle;html=1;whiteSpace=wrap;connectable=0;strokeColor=inherit;overflow=hidden;fillColor=none;top=0;left=0;bottom=0;right=0;pointerEvents=1;fontSize=16;" vertex="1" parent="DNINL0P4rUj6YcQH25lX-28">
          <mxGeometry x="253" width="127" height="90" as="geometry">
            <mxRectangle width="127" height="90" as="alternateBounds" />
          </mxGeometry>
        </mxCell>
        <mxCell id="DNINL0P4rUj6YcQH25lX-32" value="" style="shape=tableRow;horizontal=0;startSize=0;swimlaneHead=0;swimlaneBody=0;strokeColor=inherit;top=0;left=0;bottom=0;right=0;collapsible=0;dropTarget=0;fillColor=none;points=[[0,0.5],[1,0.5]];portConstraint=eastwest;fontSize=16;" vertex="1" parent="1">
          <mxGeometry x="1260" y="170" width="380" height="90" as="geometry" />
        </mxCell>
        <mxCell id="DNINL0P4rUj6YcQH25lX-56" value="" style="edgeStyle=none;curved=1;rounded=0;orthogonalLoop=1;jettySize=auto;html=1;fontSize=12;startSize=8;endSize=8;" edge="1" parent="1" source="DNINL0P4rUj6YcQH25lX-36" target="DNINL0P4rUj6YcQH25lX-55">
          <mxGeometry relative="1" as="geometry" />
        </mxCell>
        <mxCell id="DNINL0P4rUj6YcQH25lX-36" value="" style="shape=table;startSize=0;container=1;collapsible=0;childLayout=tableLayout;fontSize=16;" vertex="1" parent="1">
          <mxGeometry x="1261" y="170" width="380" height="90" as="geometry" />
        </mxCell>
        <mxCell id="DNINL0P4rUj6YcQH25lX-37" value="" style="shape=tableRow;horizontal=0;startSize=0;swimlaneHead=0;swimlaneBody=0;strokeColor=inherit;top=0;left=0;bottom=0;right=0;collapsible=0;dropTarget=0;fillColor=none;points=[[0,0.5],[1,0.5]];portConstraint=eastwest;fontSize=16;" vertex="1" parent="DNINL0P4rUj6YcQH25lX-36">
          <mxGeometry width="380" height="90" as="geometry" />
        </mxCell>
        <mxCell id="DNINL0P4rUj6YcQH25lX-38" value="MethodOfAdmin&lt;span style=&quot;white-space: pre;&quot;&gt;&lt;/span&gt;" style="shape=partialRectangle;html=1;whiteSpace=wrap;connectable=0;strokeColor=inherit;overflow=hidden;fillColor=none;top=0;left=0;bottom=0;right=0;pointerEvents=1;fontSize=16;" vertex="1" parent="DNINL0P4rUj6YcQH25lX-37">
          <mxGeometry width="127" height="90" as="geometry">
            <mxRectangle width="127" height="90" as="alternateBounds" />
          </mxGeometry>
        </mxCell>
        <mxCell id="DNINL0P4rUj6YcQH25lX-39" value="UnitsperDay" style="shape=partialRectangle;html=1;whiteSpace=wrap;connectable=0;strokeColor=inherit;overflow=hidden;fillColor=none;top=0;left=0;bottom=0;right=0;pointerEvents=1;fontSize=16;" vertex="1" parent="DNINL0P4rUj6YcQH25lX-37">
          <mxGeometry x="127" width="126" height="90" as="geometry">
            <mxRectangle width="126" height="90" as="alternateBounds" />
          </mxGeometry>
        </mxCell>
        <mxCell id="DNINL0P4rUj6YcQH25lX-40" value="StartDate" style="shape=partialRectangle;html=1;whiteSpace=wrap;connectable=0;strokeColor=inherit;overflow=hidden;fillColor=none;top=0;left=0;bottom=0;right=0;pointerEvents=1;fontSize=16;" vertex="1" parent="DNINL0P4rUj6YcQH25lX-37">
          <mxGeometry x="253" width="127" height="90" as="geometry">
            <mxRectangle width="127" height="90" as="alternateBounds" />
          </mxGeometry>
        </mxCell>
        <mxCell id="DNINL0P4rUj6YcQH25lX-46" value="" style="shape=tableRow;horizontal=0;startSize=0;swimlaneHead=0;swimlaneBody=0;strokeColor=inherit;top=0;left=0;bottom=0;right=0;collapsible=0;dropTarget=0;fillColor=none;points=[[0,0.5],[1,0.5]];portConstraint=eastwest;fontSize=16;" vertex="1" parent="1">
          <mxGeometry x="1480" y="180" width="531" height="90" as="geometry" />
        </mxCell>
        <mxCell id="DNINL0P4rUj6YcQH25lX-55" value="EndDate" style="whiteSpace=wrap;html=1;fontSize=16;startSize=0;" vertex="1" parent="DNINL0P4rUj6YcQH25lX-46">
          <mxGeometry x="161" y="-10" width="139" height="90" as="geometry" />
        </mxCell>
        <mxCell id="DNINL0P4rUj6YcQH25lX-59" value="" style="endArrow=none;html=1;rounded=0;fontSize=12;startSize=8;endSize=8;curved=1;" edge="1" parent="1" target="DNINL0P4rUj6YcQH25lX-20">
          <mxGeometry width="50" height="50" relative="1" as="geometry">
            <mxPoint x="880" y="230" as="sourcePoint" />
            <mxPoint x="930" y="180" as="targetPoint" />
          </mxGeometry>
        </mxCell>
        <mxCell id="DNINL0P4rUj6YcQH25lX-62" value="" style="line;strokeWidth=2;direction=south;html=1;" vertex="1" parent="1">
          <mxGeometry x="300" y="260" width="10" height="160" as="geometry" />
        </mxCell>
        <mxCell id="DNINL0P4rUj6YcQH25lX-63" value="" style="line;strokeWidth=2;direction=south;html=1;" vertex="1" parent="1">
          <mxGeometry x="430" y="260" width="10" height="160" as="geometry" />
        </mxCell>
        <mxCell id="DNINL0P4rUj6YcQH25lX-64" value="" style="line;strokeWidth=2;direction=south;html=1;" vertex="1" parent="1">
          <mxGeometry x="950" y="260" width="10" height="160" as="geometry" />
        </mxCell>
        <mxCell id="DNINL0P4rUj6YcQH25lX-66" value="" style="line;strokeWidth=2;direction=south;html=1;" vertex="1" parent="1">
          <mxGeometry x="686" y="260" width="10" height="160" as="geometry" />
        </mxCell>
        <mxCell id="DNINL0P4rUj6YcQH25lX-71" value="" style="line;strokeWidth=2;direction=south;html=1;" vertex="1" parent="1">
          <mxGeometry x="1700" y="260" width="10" height="160" as="geometry" />
        </mxCell>
        <mxCell id="DNINL0P4rUj6YcQH25lX-72" value="" style="line;strokeWidth=2;direction=south;html=1;" vertex="1" parent="1">
          <mxGeometry x="1570" y="260" width="10" height="160" as="geometry" />
        </mxCell>
        <mxCell id="DNINL0P4rUj6YcQH25lX-73" value="" style="line;strokeWidth=2;direction=south;html=1;" vertex="1" parent="1">
          <mxGeometry x="1450" y="260" width="10" height="160" as="geometry" />
        </mxCell>
        <mxCell id="DNINL0P4rUj6YcQH25lX-74" value="" style="line;strokeWidth=2;direction=south;html=1;" vertex="1" parent="1">
          <mxGeometry x="1320" y="260" width="10" height="160" as="geometry" />
        </mxCell>
        <mxCell id="DNINL0P4rUj6YcQH25lX-75" value="" style="line;strokeWidth=2;direction=south;html=1;" vertex="1" parent="1">
          <mxGeometry x="1200" y="260" width="10" height="160" as="geometry" />
        </mxCell>
        <mxCell id="DNINL0P4rUj6YcQH25lX-76" value="" style="line;strokeWidth=2;direction=south;html=1;" vertex="1" parent="1">
          <mxGeometry x="1066" y="260" width="10" height="160" as="geometry" />
        </mxCell>
        <mxCell id="DNINL0P4rUj6YcQH25lX-78" value="" style="edgeStyle=segmentEdgeStyle;endArrow=classic;html=1;curved=0;rounded=0;endSize=8;startSize=8;fontSize=12;exitX=1;exitY=0.5;exitDx=0;exitDy=0;exitPerimeter=0;" edge="1" parent="1" source="DNINL0P4rUj6YcQH25lX-66">
          <mxGeometry width="50" height="50" relative="1" as="geometry">
            <mxPoint x="950" y="230" as="sourcePoint" />
            <mxPoint x="180" y="260" as="targetPoint" />
          </mxGeometry>
        </mxCell>
        <mxCell id="DNINL0P4rUj6YcQH25lX-79" value="" style="line;strokeWidth=2;direction=south;html=1;" vertex="1" parent="1">
          <mxGeometry x="560" y="260" width="10" height="160" as="geometry" />
        </mxCell>
        <mxCell id="DNINL0P4rUj6YcQH25lX-80" value="" style="edgeStyle=segmentEdgeStyle;endArrow=classic;html=1;curved=0;rounded=0;endSize=8;startSize=8;fontSize=12;exitX=1;exitY=0.5;exitDx=0;exitDy=0;exitPerimeter=0;fontStyle=1" edge="1" parent="1" source="DNINL0P4rUj6YcQH25lX-71">
          <mxGeometry width="50" height="50" relative="1" as="geometry">
            <mxPoint x="1701" y="420" as="sourcePoint" />
            <mxPoint x="831" y="260" as="targetPoint" />
          </mxGeometry>
        </mxCell>
      </root>
    </mxGraphModel>
  </diagram>
</mxfile>
